<?xml version="1.0" encoding="UTF-8"?>
<!-- Created with Inkscape (http://www.inkscape.org/) -->
<svg width="45.275mm" height="47.34mm" version="1.1" viewBox="0 0 45.275 47.34" xmlns="http://www.w3.org/2000/svg">
 <g transform="translate(-67.701 -116.05)">
  <path d="m88.555 116.41-1.7038 4.962 0.0217 0.28525 0.82631 4.3067-4.7899 2.0764-2.3265-3.6571-0.17725-0.21807-4.5579-2.2479-2.5234 2.6407 2.1482 4.7692 0.20826 0.18552 3.4949 2.434-1.9839 5.0121-4.116-0.86454-0.27285-0.0233-4.7423 1.7828v3.7341l4.7423 1.7828 0.27285-0.0232 4.116-0.86455 1.9839 5.0121-3.4949 2.4345-0.20826 0.185-2.1482 4.7692 2.5234 2.6407 4.5579-2.2479 0.17725-0.21808 2.3265-3.6571 4.7899 2.0764-0.82631 4.3067-0.0217 0.28526 1.7038 4.962h3.5683l1.7043-4.962-0.02222-0.28526-0.82631-4.3067 4.7904-2.0764 2.326 3.6571 0.17725 0.21808 4.5579 2.2479 2.5234-2.6407-2.1482-4.7692-0.20825-0.185-3.4949-2.4345 1.9839-5.0121 4.1165 0.86455 0.27234 0.0232 4.7424-1.7828v-3.7341l-4.7424-1.7828-0.27234 0.0233-4.1165 0.86454-1.9839-5.0121 3.4949-2.434 0.20825-0.18552 2.1482-4.7692-2.5234-2.6407-4.5579 2.2479-0.17725 0.21807-2.326 3.6571-4.7904-2.0764 0.82631-4.3067 0.02222-0.28525-1.7043-4.962zm1.5317 15.954a7.276 7.276 0 0 1 7.276 7.276 7.276 7.276 0 0 1-7.276 7.276 7.276 7.276 0 0 1-7.276-7.276 7.276 7.276 0 0 1 7.276-7.276z" stroke="#000" stroke-width=".71822"/>
 </g>
</svg>
